# xmcd CD database file
#
# Track frame offsets:
#	150
#	15336
#	32677
#	44769
#	58485
#	79099
#	90041
#	106623
#	122443
#	137725
#	156832
#
# Disc length: 2327 seconds
#
# Revision: 1
# Processed by: cddbd v1.5.2PL0 Copyright (c) Steve Scherf et al.
# Submitted via: CDex 1.51
#
DISCID=7e09150b
DTITLE=Black Joe Lewis and The Honeybears - Scandalous
DYEAR=2011
DGENRE=Rock
TTITLE0=Livin' In The Jungle
TTITLE1=I'm Gonna Leave You
TTITLE2=Booty City
TTITLE3=Black Snake
TTITLE4=She's So Scandalous
TTITLE5=Messin'
TTITLE6=Mustang Ranch
TTITLE7=You Been Lyin'
TTITLE8=Ballad Of Jimmy Tanks
TTITLE9=Since I Met You Baby
TTITLE10=Jesus Took My Hand
EXTD=YEAR: 2011
EXTT0=
EXTT1=
EXTT2=
EXTT3=
EXTT4=
EXTT5=
EXTT6=
EXTT7=
EXTT8=
EXTT9=
EXTT10=
PLAYORDER=
